<svg width="27" height="38" viewBox="0 0 27 38" fill="none" xmlns="http://www.w3.org/2000/svg">
<path d="M5.34375 12.4062C4.59375 12.4062 3.97656 12.4453 3.49219 12.5234C3.02344 12.6016 2.63281 12.7656 2.32031 13.0156C2.02344 13.2656 1.78125 13.6172 1.59375 14.0703C1.42188 14.5078 1.25781 15.0938 1.10156 15.8281H0.445312L0.609375 11.2812H15.7031L15.8672 15.8281H15.2109C15.0547 15.0938 14.8828 14.5078 14.6953 14.0703C14.5234 13.6172 14.2891 13.2656 13.9922 13.0156C13.6953 12.7656 13.3047 12.6016 12.8203 12.5234C12.3359 12.4453 11.7109 12.4062 10.9453 12.4062H9.51562V26.1172C9.51562 26.6016 9.54688 26.9922 9.60938 27.2891C9.67188 27.5859 9.78906 27.8203 9.96094 27.9922C10.1484 28.1641 10.4062 28.2891 10.7344 28.3672C11.0781 28.4297 11.5234 28.4766 12.0703 28.5078V29H4.28906V28.5078C4.83594 28.4766 5.27344 28.4297 5.60156 28.3672C5.92969 28.2891 6.17969 28.1562 6.35156 27.9688C6.53906 27.7656 6.65625 27.4922 6.70312 27.1484C6.76562 26.8047 6.79688 26.3516 6.79688 25.7891V12.4062H5.34375Z" fill="black"/>
<path d="M17.4141 26.1172C17.4141 26.6016 17.4453 27 17.5078 27.3125C17.5703 27.6094 17.6875 27.8438 17.8594 28.0156C18.0469 28.1875 18.3047 28.3125 18.6328 28.3906C18.9609 28.4531 19.3906 28.4922 19.9219 28.5078V29H12.4219V28.5078C12.9375 28.4609 13.3359 28.3984 13.6172 28.3203C13.9141 28.2422 14.1406 28.1094 14.2969 27.9219C14.4531 27.7344 14.5469 27.4766 14.5781 27.1484C14.625 26.8047 14.6484 26.3516 14.6484 25.7891V14.2109C14.6484 13.7266 14.625 13.3438 14.5781 13.0625C14.5312 12.7656 14.4297 12.5391 14.2734 12.3828C14.1172 12.2109 13.8906 12.0859 13.5938 12.0078C13.2969 11.9297 12.9062 11.8672 12.4219 11.8203V11.2812H19.4766C20.8047 11.2812 22 11.4688 23.0625 11.8438C24.1406 12.2188 24.9531 12.7109 25.5 13.3203C26.1719 14.1172 26.5078 15.0547 26.5078 16.1328C26.5078 17.0234 26.2734 17.8516 25.8047 18.6172C25.3516 19.3672 24.7266 19.9609 23.9297 20.3984C23.3516 20.7109 22.6875 20.9375 21.9375 21.0781C21.2031 21.2188 20.3047 21.2891 19.2422 21.2891C18.8984 21.2891 18.5938 21.2891 18.3281 21.2891C18.0781 21.2734 17.7734 21.2578 17.4141 21.2422V26.1172ZM17.4141 20.1406C17.7266 20.1719 17.9844 20.1953 18.1875 20.2109C18.4062 20.2266 18.6484 20.2344 18.9141 20.2344C22.0234 20.2344 23.5781 18.9219 23.5781 16.2969C23.5781 14.9062 23.1484 13.8906 22.2891 13.25C21.4453 12.6094 20.1094 12.2891 18.2812 12.2891C17.9219 12.2891 17.6875 12.3516 17.5781 12.4766C17.4688 12.5859 17.4141 12.8281 17.4141 13.2031V20.1406Z" fill="black"/>
</svg>
