<svg xmlns="http://www.w3.org/2000/svg" xmlns:xlink="http://www.w3.org/1999/xlink" width="1080" zoomAndPan="magnify" viewBox="0 0 810 809.999993" height="1080" preserveAspectRatio="xMidYMid meet" version="1.0"><defs><clipPath id="122b697b9e"><path d="M 167 294.675781 L 663.914062 294.675781 L 663.914062 439 L 167 439 Z M 167 294.675781 " clip-rule="nonzero"/></clipPath><clipPath id="9b27c42983"><path d="M 304 366 L 530 366 L 530 515.175781 L 304 515.175781 Z M 304 366 " clip-rule="nonzero"/></clipPath><clipPath id="1d0bc39194"><path d="M 146.414062 403 L 189 403 L 189 512 L 146.414062 512 Z M 146.414062 403 " clip-rule="nonzero"/></clipPath></defs><g clip-path="url(#122b697b9e)"><path fill="#100f0d" d="M 415.738281 438.800781 L 663.605469 362.269531 L 415.738281 294.675781 L 167.871094 394.289062 L 415.738281 438.800781 " fill-opacity="1" fill-rule="nonzero"/></g><g clip-path="url(#9b27c42983)"><path fill="#100f0d" d="M 529.3125 366.738281 L 529.3125 515.167969 C 511.296875 470.285156 467.117188 450.125 415.738281 450.125 C 365.949219 450.125 323.335938 468.355469 304.34375 511.050781 L 304.34375 366.738281 L 529.3125 366.738281 " fill-opacity="1" fill-rule="nonzero"/></g><path fill="#100f0d" d="M 161.722656 394.027344 C 161.722656 399.839844 166.441406 404.550781 172.261719 404.550781 C 178.078125 404.550781 182.796875 399.839844 182.796875 394.027344 C 182.796875 388.214844 178.078125 383.503906 172.261719 383.503906 C 166.441406 383.503906 161.722656 388.214844 161.722656 394.027344 " fill-opacity="1" fill-rule="nonzero"/><g clip-path="url(#1d0bc39194)"><path fill="#100f0d" d="M 172.152344 404.550781 C 172.152344 404.550781 160.203125 413.878906 172.152344 439.050781 C 184.101562 464.21875 146.730469 504.140625 146.730469 504.140625 L 167.589844 491.996094 C 167.589844 491.996094 162.375 505.011719 160.636719 511.089844 C 160.636719 511.089844 203.871094 478.976562 182.796875 436.445312 C 161.722656 393.917969 172.152344 404.550781 172.152344 404.550781 " fill-opacity="1" fill-rule="nonzero"/></g></svg>